# xmcd
#
# Track frame offsets:
#	150
#	20475
#	32674
#	50845
#	69302
#	81917
#	98363
#	118800
#	132373
#	150198
#	162762
#	183909
#	202759
#	218111
#
# Disc length: 3116 seconds
#
# Revision: 1
# Processed by: cddbd v1.5.2PL0 Copyright (c) Steve Scherf et al.
# Submitted via: audiograbber 1.83.01
#
DISCID=ad0c2a0e
DTITLE=Dennis Schütze - Shine Like Gold
DYEAR=2008
DGENRE=Country
TTITLE0=Dear Inside My Heart
TTITLE1=Florina
TTITLE2=Half As Good As You
TTITLE3=I'm Walkin'
TTITLE4=I'm Alright
TTITLE5=How Can It Be
TTITLE6=Shine A Light On Me
TTITLE7=Tell Me What Love Is
TTITLE8=Angelina
TTITLE9=Shine Like Gold
TTITLE10=Silver and Gold
TTITLE11=Missing You
TTITLE12=That's Ok
TTITLE13=I Never Promised You A Rosegarden
EXTD=
EXTT0=
EXTT1=
EXTT2=
EXTT3=
EXTT4=
EXTT5=
EXTT6=
EXTT7=
EXTT8=
EXTT9=
EXTT10=
EXTT11=
EXTT12=
EXTT13=
PLAYORDER=
